<svg width="762" height="522" viewBox="0 0 762 522" fill="none" xmlns="http://www.w3.org/2000/svg">
<path d="M678.256 465.376C675.682 465.376 674.077 466.776 673.439 469.549C674.405 468.153 675.536 467.639 676.813 467.993C677.543 468.19 678.073 468.762 678.654 469.411C679.603 470.453 680.698 471.656 683.09 471.656C685.66 471.656 687.265 470.256 687.903 467.483C686.937 468.878 685.806 469.392 684.529 469.039C683.799 468.842 683.272 468.27 682.688 467.621C681.738 466.579 680.644 465.376 678.256 465.376V465.376ZM673.422 471.616C670.848 471.616 669.243 473.011 668.605 475.788C669.571 474.389 670.702 473.879 671.979 474.232C672.709 474.429 673.239 475.002 673.82 475.65C674.77 476.693 675.864 477.896 678.256 477.896C680.826 477.896 682.431 476.496 683.069 473.722C682.103 475.118 680.972 475.632 679.695 475.275C678.965 475.078 678.438 474.51 677.854 473.861C676.921 472.815 675.827 471.616 673.422 471.616Z" fill="url(#paint0_linear_737_173)"/>
<path d="M697.554 470.632H695.875V474.156C695.875 475.1 696.439 475.078 697.554 475.02V476.438C695.292 476.733 694.399 476.062 694.399 474.156V470.632H693.156V469.115H694.399V467.147L695.859 466.677V469.115H697.534V470.632H697.554ZM703.975 469.115H705.435V476.438H703.975V475.373C703.462 476.142 702.662 476.616 701.604 476.616C699.76 476.616 698.23 474.921 698.23 472.756C698.23 470.573 699.76 468.9 701.605 468.9C702.662 468.9 703.462 469.37 703.976 470.14L703.975 469.115ZM701.821 475.118C703.043 475.118 703.976 474.134 703.976 472.779C703.976 471.419 703.043 470.435 701.821 470.435C700.601 470.435 699.669 471.419 699.669 472.779C699.689 474.134 700.601 475.118 701.821 475.118H701.821ZM707.877 468.015C707.367 468.015 706.949 467.541 706.949 467.009C706.949 466.458 707.367 466.007 707.877 466.007C708.388 466.007 708.81 466.458 708.81 467.009C708.827 467.541 708.387 468.015 707.877 468.015ZM707.148 476.438V469.116H708.607V476.438H707.148ZM710.303 476.438V465.751H711.762V476.438H710.303ZM721.305 469.116H722.856L720.721 476.438H719.278L717.873 471.499L716.451 476.438H715.012L712.877 469.116H714.427L715.74 474.174L717.163 469.115H718.568L719.97 474.174L721.305 469.116ZM724.659 468.014C724.149 468.014 723.731 467.542 723.731 467.009C723.731 466.458 724.149 466.007 724.659 466.007C725.17 466.007 725.592 466.458 725.592 467.009C725.609 467.541 725.19 468.015 724.659 468.015V468.014ZM723.93 476.438V469.116H725.389V476.438H723.93ZM730.662 468.919C732.175 468.919 733.27 470.041 733.27 471.929V476.438H731.811V472.108C731.811 470.985 731.209 470.417 730.297 470.417C729.331 470.417 728.564 471.025 728.564 472.52V476.456H727.105V469.137H728.564V470.081C729.02 469.294 729.75 468.919 730.662 468.919V468.919ZM740.239 466.185H741.698V476.438H740.239V475.373C739.728 476.142 738.925 476.616 737.867 476.616C736.023 476.616 734.493 474.921 734.493 472.756C734.493 470.573 736.023 468.9 737.867 468.9C738.925 468.9 739.728 469.37 740.239 470.14V466.185ZM738.086 475.118C739.306 475.118 740.239 474.134 740.239 472.779C740.239 471.419 739.306 470.435 738.086 470.435C736.864 470.435 735.932 471.419 735.932 472.779C735.932 474.134 736.864 475.118 738.087 475.118H738.086ZM746.603 476.634C744.563 476.634 743.012 474.943 743.012 472.779C743.012 470.592 744.542 468.919 746.603 468.919C747.937 468.919 749.086 469.666 749.633 470.81L748.373 471.598C748.083 470.909 747.407 470.475 746.586 470.475C745.384 470.475 744.488 471.459 744.488 472.779C744.488 474.094 745.4 475.078 746.586 475.078C747.407 475.078 748.062 474.626 748.393 473.959L749.65 474.725C749.103 475.887 747.937 476.634 746.603 476.634ZM752.096 471.124C752.096 472.462 755.744 471.656 755.744 474.371C755.744 475.829 754.558 476.634 753.099 476.634C751.748 476.634 750.764 475.964 750.326 474.921L751.586 474.134C751.802 474.805 752.349 475.199 753.099 475.199C753.754 475.199 754.247 474.962 754.247 474.371C754.247 473.074 750.599 473.799 750.599 471.183C750.599 469.805 751.694 468.941 753.079 468.941C754.193 468.941 755.122 469.491 755.599 470.453L754.355 471.204C754.119 470.632 753.646 470.377 753.079 470.377C752.552 470.355 752.096 470.613 752.096 471.124ZM758.352 471.124C758.352 472.462 762 471.656 762 474.371C762 475.829 760.814 476.634 759.355 476.634C758.004 476.634 757.02 475.964 756.582 474.921L757.842 474.134C758.061 474.805 758.608 475.199 759.355 475.199C760.01 475.199 760.503 474.962 760.503 474.371C760.503 473.074 756.855 473.799 756.855 471.183C756.855 469.805 757.95 468.941 759.338 468.941C760.449 468.941 761.378 469.491 761.855 470.453L760.614 471.204C760.375 470.632 759.902 470.377 759.337 470.377C758.808 470.355 758.352 470.613 758.352 471.124Z" fill="#2D3748"/>
<path d="M287.023 349.882C281.011 362.356 270.484 370.749 256.556 373.508C254.421 374.039 252.229 374.298 250.03 374.281C242.014 374.281 234.667 370.891 231.1 365.339C226.31 357.943 224.68 342.262 240.471 330.663C240.792 332.433 241.447 334.86 241.881 336.297C238.781 338.634 236.244 341.654 234.46 345.13C231.521 350.987 231.848 356.838 235.328 362.248C237.733 365.895 241.54 368.112 246.436 368.79C252.552 369.575 258.756 368.389 264.171 365.4C272.661 360.871 278.319 355.462 282.02 348.065C280.973 346.968 280.354 345.523 280.276 343.998C280.22 342.361 280.806 340.769 281.906 339.571C283.005 338.372 284.528 337.665 286.141 337.605H286.368C287.936 337.597 289.448 338.201 290.589 339.293C291.731 340.384 292.416 341.879 292.501 343.469C292.587 345.058 292.068 346.62 291.05 347.832C290.033 349.043 288.596 349.811 287.036 349.977L287.023 349.882ZM306.174 336.188C314.329 345.571 314.55 356.614 311.397 363.02C308.458 368.871 300.709 374.728 290.289 374.728C285.425 374.627 280.639 373.46 276.262 371.305C277.791 370.2 279.962 368.43 281.158 367.325C284.534 368.81 288.167 369.598 291.845 369.644C298.592 369.644 303.702 366.444 306.748 360.593C308.705 356.729 308.819 352.201 306.968 347.564C304.698 341.73 300.658 336.779 295.432 333.429C288.577 328.739 280.495 326.239 272.227 326.25H270.27C269.813 327.32 269.071 328.239 268.127 328.903C267.182 329.566 266.073 329.948 264.926 330.006H264.719C263.132 329.986 261.615 329.339 260.49 328.202C259.366 327.066 258.722 325.529 258.696 323.918C258.67 322.308 259.264 320.75 260.351 319.577C261.438 318.403 262.933 317.706 264.519 317.634H264.739C265.844 317.634 266.927 317.944 267.87 318.529C268.813 319.114 269.578 319.951 270.083 320.949H271.826C285.72 320.949 297.917 326.358 306.174 336.188V336.188ZM250.899 351.78C250.784 350.655 251.053 349.523 251.66 348.574C245.568 337.863 242.308 324.284 247.312 310.149C250.899 299.526 259.93 292.347 269.722 292.347C280.169 292.347 291.051 301.628 292.353 319.511C290.723 318.962 288.345 318.156 286.916 317.857C286.562 312.007 281.692 297.431 270.156 297.648C266.021 297.764 259.93 299.75 256.797 303.831C252.922 308.703 250.667 314.695 250.357 320.949C249.623 329.523 251.605 338.111 256.015 345.462C256.259 345.372 256.518 345.335 256.777 345.354H256.99C258.606 345.324 260.167 345.947 261.33 347.086C262.494 348.224 263.163 349.785 263.193 351.425C263.222 353.064 262.608 354.649 261.486 355.829C260.364 357.01 258.827 357.689 257.211 357.719H256.99C255.414 357.713 253.901 357.091 252.766 355.98C251.631 354.87 250.962 353.359 250.899 351.76V351.78Z" fill="#764ABC"/>
<path d="M699.37 211.105C703.576 211.105 706.985 207.645 706.985 203.377C706.985 199.108 703.576 195.648 699.37 195.648C695.165 195.648 691.755 199.108 691.755 203.377C691.755 207.645 695.165 211.105 699.37 211.105Z" fill="#61DAFB"/>
<path d="M728.294 190.632C726.824 190.089 725.288 189.547 723.685 189.073C724.085 187.446 724.419 185.818 724.686 184.259C726.089 175.311 724.553 169.006 720.278 166.566C719.009 165.82 717.606 165.481 716.003 165.481C711.327 165.481 705.382 169.006 699.37 174.904C693.358 169.006 687.413 165.481 682.738 165.481C681.134 165.481 679.732 165.82 678.463 166.566C674.188 169.074 672.651 175.378 674.054 184.259C674.321 185.818 674.655 187.446 675.056 189.073C673.453 189.547 671.916 190.022 670.447 190.632C662.097 193.886 657.555 198.36 657.555 203.377C657.555 208.393 662.164 212.868 670.447 216.122C671.916 216.664 673.453 217.206 675.056 217.681C674.655 219.308 674.321 220.935 674.054 222.494C672.651 231.443 674.188 237.747 678.463 240.188C679.732 240.934 681.134 241.273 682.738 241.273C687.48 241.273 693.425 237.747 699.37 231.849C705.382 237.747 711.327 241.273 716.003 241.273C717.606 241.273 719.009 240.934 720.278 240.188C724.553 237.68 726.089 231.375 724.686 222.494C724.419 220.935 724.085 219.308 723.685 217.681C725.288 217.206 726.824 216.732 728.294 216.122C736.643 212.868 741.185 208.393 741.185 203.377C741.185 198.36 736.643 193.886 728.294 190.632V190.632ZM718.407 169.955C721.146 171.582 722.081 176.599 720.946 183.717C720.745 185.141 720.411 186.632 720.011 188.191C716.537 187.378 712.863 186.835 708.989 186.496C706.718 183.242 704.38 180.327 702.042 177.683C706.985 172.735 711.995 169.345 716.07 169.345C716.938 169.345 717.74 169.548 718.407 169.955V169.955ZM710.926 210.156C709.724 212.325 708.321 214.495 706.852 216.664C704.38 216.867 701.909 216.935 699.37 216.935C696.765 216.935 694.294 216.867 691.889 216.664C690.419 214.495 689.083 212.325 687.881 210.156C686.612 207.919 685.41 205.614 684.341 203.377C685.41 201.14 686.612 198.835 687.881 196.597C689.083 194.428 690.486 192.259 691.956 190.089C694.427 189.886 696.899 189.818 699.437 189.818C702.042 189.818 704.514 189.886 706.918 190.089C708.388 192.259 709.724 194.428 710.926 196.597C712.195 198.835 713.398 201.14 714.466 203.377C713.331 205.614 712.195 207.851 710.926 210.156ZM716.47 207.919C717.472 210.291 718.274 212.596 719.009 214.901C716.738 215.444 714.333 215.85 711.795 216.189C712.596 214.901 713.464 213.546 714.199 212.122C715.001 210.698 715.736 209.275 716.47 207.919ZM699.37 226.29C697.767 224.528 696.231 222.63 694.761 220.664C696.298 220.731 697.834 220.799 699.37 220.799C700.907 220.799 702.443 220.731 703.979 220.664C702.51 222.63 700.973 224.528 699.37 226.29ZM686.946 216.122C684.408 215.783 682.003 215.376 679.732 214.834C680.466 212.596 681.268 210.224 682.27 207.851C683.005 209.207 683.74 210.63 684.541 211.986C685.343 213.478 686.144 214.766 686.946 216.122V216.122ZM682.27 198.835C681.268 196.462 680.466 194.157 679.732 191.852C682.003 191.31 684.408 190.903 686.946 190.564C686.144 191.852 685.276 193.208 684.541 194.631C683.74 196.055 683.005 197.479 682.27 198.835V198.835ZM699.37 180.463C700.973 182.226 702.51 184.124 703.979 186.09C702.443 186.022 700.907 185.954 699.37 185.954C697.834 185.954 696.298 186.022 694.761 186.09C696.231 184.124 697.767 182.226 699.37 180.463ZM714.199 194.699L711.795 190.632C714.333 190.971 716.738 191.377 719.009 191.92C718.274 194.157 717.472 196.53 716.47 198.902C715.736 197.479 715.001 196.055 714.199 194.699ZM677.795 183.717C676.659 176.599 677.594 171.582 680.333 169.955C681.001 169.548 681.802 169.345 682.671 169.345C686.679 169.345 691.688 172.667 696.698 177.683C694.36 180.26 692.022 183.242 689.751 186.496C685.877 186.835 682.203 187.446 678.73 188.191C678.329 186.632 678.062 185.141 677.795 183.717V183.717ZM661.296 203.377C661.296 200.19 665.103 196.801 671.783 194.293C673.119 193.75 674.588 193.276 676.058 192.869C677.127 196.259 678.463 199.851 680.066 203.444C678.463 207.037 677.06 210.563 676.058 213.952C666.84 211.241 661.296 207.173 661.296 203.377ZM680.333 236.798C677.594 235.171 676.659 230.155 677.795 223.036C677.995 221.613 678.329 220.121 678.73 218.562C682.203 219.376 685.877 219.918 689.751 220.257C692.022 223.511 694.36 226.426 696.698 229.07C691.755 234.019 686.745 237.408 682.671 237.408C681.802 237.408 681.001 237.205 680.333 236.798ZM720.946 223.036C722.081 230.155 721.146 235.171 718.407 236.798C717.74 237.205 716.938 237.408 716.07 237.408C712.062 237.408 707.052 234.087 702.042 229.07C704.38 226.494 706.718 223.511 708.989 220.257C712.863 219.918 716.537 219.308 720.011 218.562C720.411 220.121 720.679 221.613 720.946 223.036V223.036ZM726.958 212.461C725.622 213.003 724.152 213.478 722.683 213.884C721.614 210.495 720.278 206.902 718.675 203.309C720.278 199.716 721.681 196.191 722.683 192.801C731.901 195.513 737.445 199.58 737.445 203.377C737.445 206.563 733.571 209.953 726.958 212.461Z" fill="#61DAFB"/>
<path d="M688.276 8.30315C685.456 8.31671 682.764 8.56008 680.394 8.98582C673.414 10.2373 672.147 12.8568 672.147 17.6883V24.0682H688.641V26.1949H665.956C661.163 26.1949 656.965 29.1188 655.652 34.6831C654.137 41.059 654.07 45.0384 655.652 51.6963C656.824 56.6526 659.625 60.1832 664.419 60.1832H670.09V52.5349C670.09 47.0091 674.8 42.1355 680.395 42.1355H696.87C701.457 42.1355 705.117 38.3026 705.117 33.629V17.689C705.117 13.1517 701.346 9.74374 696.87 8.9865C694.035 8.50788 691.096 8.29027 688.276 8.30315V8.30315ZM679.356 13.4343C681.059 13.4343 682.451 14.8695 682.451 16.6348C682.451 18.3927 681.06 19.8143 679.356 19.8143C677.646 19.8143 676.261 18.3927 676.261 16.6348C676.261 14.8695 677.646 13.4343 679.356 13.4343V13.4343Z" fill="url(#paint1_linear_737_173)"/>
<path d="M707.174 26.1949V33.629C707.174 39.3913 702.359 44.2419 696.869 44.2419H680.394C675.881 44.2419 672.147 48.1623 672.147 52.7491V68.6904C672.147 73.2264 676.033 75.8954 680.394 77.1963C685.615 78.7535 690.622 79.0355 696.869 77.1963C701.022 75.9754 705.116 73.52 705.116 68.6904V62.3098H688.641V60.1825H713.364C718.158 60.1825 719.945 56.7895 721.613 51.6956C723.335 46.4519 723.26 41.4088 721.613 34.6825C720.428 29.8387 718.165 26.1942 713.364 26.1942H707.174V26.1949ZM697.907 66.5631C699.617 66.5631 701.002 67.9847 701.002 69.7439C701.002 71.5079 699.617 72.943 697.907 72.943C696.203 72.943 694.812 71.5079 694.812 69.7439C694.812 67.9847 696.203 66.5631 697.907 66.5631V66.5631Z" fill="url(#paint2_linear_737_173)"/>
<path opacity="0.444" d="M710.932 81.0774C710.932 83.4793 701.036 85.4269 688.829 85.4269C676.621 85.4269 666.724 83.4793 666.724 81.0774C666.724 78.6748 676.62 76.7272 688.829 76.7272C701.036 76.7272 710.932 78.6742 710.932 81.0774Z" fill="url(#paint3_radial_737_173)"/>
<path d="M76.3663 363.874C76.1726 363.874 75.9802 363.823 75.8105 363.722L74.0404 362.659C73.7759 362.509 73.9048 362.456 73.9923 362.425C74.345 362.301 74.4165 362.271 74.7925 362.056C74.832 362.034 74.8834 362.042 74.9241 362.066L76.2835 362.886C76.3087 362.899 76.337 362.907 76.3656 362.907C76.3943 362.907 76.4225 362.899 76.4478 362.886L81.7495 359.78C81.7745 359.765 81.7951 359.744 81.8094 359.718C81.8237 359.693 81.8312 359.664 81.831 359.634V353.425C81.831 353.395 81.8235 353.365 81.8091 353.339C81.7947 353.313 81.7739 353.292 81.7488 353.276L76.4491 350.173C76.4241 350.159 76.3959 350.152 76.3673 350.152C76.3387 350.152 76.3105 350.159 76.2855 350.173L70.9864 353.277C70.9613 353.292 70.9404 353.314 70.9258 353.34C70.9112 353.366 70.9033 353.395 70.9029 353.425V359.634C70.9029 359.694 70.9357 359.75 70.9864 359.778L72.4386 360.63C73.2268 361.03 73.7098 360.559 73.7098 360.086V353.954C73.7098 353.868 73.7786 353.8 73.8634 353.8H74.536C74.6195 353.8 74.689 353.868 74.689 353.954V360.086C74.689 361.153 74.1165 361.765 73.1193 361.765C72.8127 361.765 72.5715 361.765 71.8982 361.429L70.5081 360.617C70.339 360.517 70.1987 360.373 70.1012 360.201C70.0037 360.029 69.9524 359.834 69.9524 359.635V353.425C69.9524 353.022 70.1641 352.646 70.5081 352.445L75.8099 349.335C75.9807 349.241 76.1721 349.192 76.3666 349.192C76.5611 349.192 76.7525 349.241 76.9234 349.335L82.2251 352.445C82.5684 352.646 82.7815 353.023 82.7815 353.425V359.635C82.7812 359.834 82.7297 360.029 82.6321 360.201C82.5344 360.373 82.3941 360.517 82.2251 360.617L76.9234 363.723C76.7542 363.823 76.5619 363.875 76.3663 363.874ZM78.0048 359.596C75.6836 359.596 75.198 358.514 75.198 357.608C75.1982 357.567 75.2144 357.527 75.2432 357.498C75.272 357.469 75.311 357.453 75.3516 357.453H76.037C76.0737 357.453 76.1092 357.466 76.1371 357.49C76.165 357.514 76.1835 357.548 76.1893 357.584C76.2921 358.293 76.6014 358.65 78.0048 358.65C79.121 358.65 79.5966 358.394 79.5966 357.792C79.5966 357.445 79.4617 357.188 77.7263 357.015C76.2754 356.869 75.3784 356.544 75.3784 355.366C75.3784 354.28 76.2801 353.632 77.7911 353.632C79.4897 353.632 80.3301 354.231 80.4363 355.515C80.4379 355.536 80.4352 355.558 80.4283 355.578C80.4215 355.599 80.4105 355.618 80.3962 355.634C80.3817 355.649 80.3643 355.662 80.345 355.67C80.3257 355.679 80.305 355.683 80.284 355.683H79.5953C79.5605 355.684 79.5268 355.671 79.4997 355.649C79.4726 355.627 79.4538 355.597 79.4463 355.562C79.2807 354.816 78.8799 354.578 77.7904 354.578C76.5714 354.578 76.4297 355.01 76.4297 355.332C76.4297 355.723 76.5967 355.837 78.2433 356.058C79.8725 356.277 80.6467 356.586 80.6467 357.749C80.6473 358.924 79.6841 359.596 78.0048 359.596" fill="#83CD29"/>
<path d="M65.4496 355.523C65.6587 355.399 65.7876 355.172 65.7876 354.926V353.33C65.7876 353.085 65.6593 352.858 65.4496 352.734L59.8626 349.442C59.7593 349.381 59.642 349.349 59.5225 349.349C59.403 349.349 59.2855 349.381 59.182 349.441L53.5603 352.735C53.4572 352.796 53.3716 352.883 53.312 352.987C53.2525 353.092 53.2211 353.211 53.2209 353.332V359.918C53.2209 360.166 53.3519 360.395 53.5643 360.518L59.1506 363.748C59.3563 363.868 59.6088 363.869 59.8165 363.752L63.1952 361.846C63.2478 361.816 63.2916 361.773 63.3223 361.72C63.353 361.668 63.3694 361.608 63.3698 361.547C63.3702 361.486 63.3546 361.426 63.3247 361.373C63.2947 361.32 63.2514 361.276 63.1992 361.246L57.5427 357.951C57.4909 357.921 57.4477 357.878 57.4177 357.825C57.3877 357.773 57.3718 357.713 57.3717 357.653V355.588C57.3717 355.464 57.4365 355.351 57.5414 355.29L59.3029 354.26C59.3543 354.229 59.4127 354.213 59.4722 354.213C59.5317 354.213 59.5901 354.229 59.6415 354.26L61.403 355.29C61.4546 355.32 61.4976 355.364 61.5275 355.416C61.5574 355.468 61.5732 355.527 61.5733 355.588V357.212C61.573 357.273 61.5885 357.333 61.6183 357.385C61.6481 357.438 61.6911 357.482 61.743 357.512C61.7948 357.542 61.8537 357.558 61.9135 357.558C61.9734 357.558 62.0321 357.541 62.0836 357.51L65.4496 355.523" fill="#404137"/>
<path d="M59.4392 355.214C59.4591 355.202 59.4816 355.196 59.5044 355.196C59.5272 355.196 59.5496 355.202 59.5695 355.214L60.6483 355.846C60.6883 355.87 60.7131 355.914 60.7131 355.961V357.225C60.7131 357.272 60.6883 357.316 60.6483 357.34L59.5695 357.971C59.5497 357.983 59.5272 357.989 59.5044 357.989C59.4815 357.989 59.459 357.983 59.4392 357.971L58.3611 357.34C58.3412 357.328 58.3246 357.311 58.3131 357.291C58.3016 357.271 58.2956 357.248 58.2957 357.225V355.961C58.2957 355.914 58.3204 355.87 58.3611 355.846L59.4392 355.214Z" fill="#83CD29"/>
<path d="M44.8098 357.844C44.8098 357.905 44.7778 357.962 44.725 357.993L42.7945 359.123C42.7688 359.138 42.7395 359.146 42.7097 359.146C42.6799 359.146 42.6506 359.138 42.6249 359.123L40.6944 357.993C40.6687 357.978 40.6473 357.956 40.6324 357.93C40.6175 357.904 40.6097 357.874 40.6096 357.844V355.581C40.6096 355.52 40.6423 355.462 40.6944 355.431L42.6249 354.3C42.6506 354.285 42.68 354.277 42.71 354.277C42.74 354.277 42.7695 354.285 42.7952 354.3L44.7263 355.431C44.7519 355.447 44.7731 355.469 44.7879 355.495C44.8026 355.521 44.8104 355.551 44.8105 355.581V357.844H44.8098ZM45.3315 341.088C45.2797 341.06 45.2215 341.045 45.1626 341.046C45.1036 341.047 45.0458 341.063 44.995 341.094C44.9441 341.124 44.9019 341.167 44.8723 341.219C44.8428 341.271 44.827 341.33 44.8265 341.389V350.145C44.8264 350.187 44.8154 350.228 44.7946 350.265C44.7739 350.302 44.7441 350.332 44.7083 350.354C44.6721 350.375 44.6311 350.386 44.5894 350.386C44.5477 350.386 44.5067 350.375 44.4705 350.354L43.0624 349.53C42.9593 349.47 42.8424 349.438 42.7234 349.438C42.6044 349.438 42.4875 349.47 42.3844 349.53L36.7614 352.823C36.6581 352.884 36.5723 352.971 36.5126 353.076C36.4529 353.181 36.4215 353.299 36.4214 353.421V360.009C36.4214 360.255 36.551 360.482 36.7607 360.606L42.3837 363.902C42.5935 364.025 42.8527 364.025 43.0631 363.902L48.6874 360.606C48.7905 360.546 48.8761 360.459 48.9357 360.354C48.9952 360.249 49.0266 360.13 49.0268 360.009V343.585C49.0268 343.336 48.8932 343.105 48.6787 342.983L45.3315 341.088Z" fill="#404137"/>
<path d="M25.5421 349.406C25.6453 349.345 25.7623 349.313 25.8815 349.313C26.0006 349.313 26.1177 349.345 26.2208 349.406L31.8438 352.699C32.0536 352.822 32.1831 353.05 32.1831 353.296V359.887C32.1831 360.133 32.0536 360.36 31.8438 360.484L26.2215 363.779C26.1181 363.839 26.001 363.871 25.8818 363.871C25.7626 363.871 25.6455 363.839 25.5421 363.779L19.9211 360.484C19.818 360.423 19.7324 360.336 19.6729 360.231C19.6133 360.126 19.5819 360.007 19.5818 359.887V353.295C19.5818 353.05 19.7114 352.822 19.9211 352.699L25.5421 349.406" fill="#83CD29"/>
<path d="M15.3166 353.241C15.3166 352.993 15.1883 352.765 14.9772 352.642L9.35623 349.359C9.26183 349.304 9.15535 349.273 9.04629 349.269H8.98817C8.87913 349.273 8.77267 349.304 8.67823 349.359L3.05655 352.642C2.95313 352.703 2.86728 352.79 2.8076 352.895C2.74793 353 2.71653 353.12 2.71655 353.241L2.72858 362.081C2.72858 362.204 2.79203 362.319 2.89824 362.379C2.9491 362.41 3.00743 362.426 3.06691 362.426C3.12638 362.426 3.18471 362.41 3.23557 362.379L6.57545 360.437C6.78653 360.31 6.91545 360.085 6.91545 359.839V355.709C6.91545 355.462 7.0437 355.235 7.25411 355.112L8.6769 354.281C8.77974 354.219 8.89695 354.187 9.01623 354.188C9.13246 354.188 9.25136 354.218 9.35489 354.281L10.7763 355.112C10.9868 355.235 11.1163 355.462 11.1163 355.709V359.839C11.1163 360.085 11.2466 360.311 11.4563 360.437L14.7962 362.379C14.8477 362.408 14.906 362.424 14.9654 362.424C15.0247 362.424 15.0829 362.408 15.1343 362.378C15.1856 362.348 15.2283 362.304 15.2581 362.252C15.2879 362.2 15.3036 362.141 15.3039 362.081L15.3166 353.241" fill="#404137"/>
<path d="M669.98 351.474H672.724V340.476L676.973 350.064C677.474 351.225 678.16 351.635 679.505 351.635C680.851 351.635 681.511 351.225 682.012 350.064L686.261 340.476V351.474H689.005V340.494C689.005 339.423 688.583 338.905 687.712 338.638C685.627 337.977 684.228 338.549 683.595 339.977L679.426 349.44L675.389 339.977C674.782 338.549 673.357 337.977 671.273 338.637C670.402 338.905 669.979 339.423 669.979 340.494V351.474H669.98ZM691.287 342.521H694.031V348.581C694.005 348.91 694.135 349.682 695.638 349.707C696.405 349.719 701.557 349.707 701.605 349.707V342.492H704.356C704.368 342.492 704.353 352.331 704.353 352.372C704.368 354.799 701.386 355.325 700.012 355.366H691.347V353.492C691.361 353.492 700.006 353.494 700.027 353.492C701.794 353.302 701.585 352.412 701.584 352.112V351.381H695.752C693.039 351.356 691.31 350.154 691.288 348.771C691.287 348.644 691.347 342.582 691.287 342.521V342.521ZM706.471 351.474H714.361C715.285 351.474 716.183 351.278 716.895 350.939C718.082 350.386 718.662 349.636 718.662 348.653V346.618C718.662 345.815 718.003 345.064 716.71 344.565C716.024 344.297 715.179 344.155 714.36 344.155H711.035C709.927 344.155 709.399 343.816 709.268 343.067C709.242 342.977 709.242 342.906 709.242 342.816V341.549C709.242 341.477 709.242 341.406 709.268 341.317C709.399 340.745 709.69 340.585 710.667 340.495L710.93 340.478H718.768V338.621H711.063C709.954 338.621 709.374 338.693 708.846 338.853C707.21 339.371 706.497 340.192 706.497 341.62V343.245C706.497 344.495 707.896 345.566 710.244 345.816C710.509 345.833 710.772 345.852 711.036 345.852H713.886C713.992 345.852 714.097 345.852 714.177 345.869C715.048 345.94 715.417 346.102 715.681 346.422C715.749 346.486 715.803 346.563 715.839 346.649C715.875 346.735 715.893 346.828 715.891 346.922V348.547C715.891 348.743 715.76 348.993 715.496 349.207C715.259 349.421 714.863 349.564 714.335 349.6L714.045 349.618H706.471V351.474ZM735.782 348.243C735.782 350.153 737.181 351.224 740.004 351.439C740.268 351.456 740.532 351.474 740.796 351.474H747.947V349.618H740.743C739.134 349.618 738.527 349.207 738.527 348.225V338.62H735.783V348.243H735.782ZM720.414 348.339V341.719C720.414 340.038 721.577 339.018 723.878 338.696C724.123 338.66 724.37 338.642 724.618 338.642H729.827C730.092 338.642 730.33 338.66 730.594 338.696C732.894 339.018 734.058 340.038 734.058 341.719V348.339C734.058 349.705 733.564 350.434 732.425 350.91L735.129 353.387H731.942L729.755 351.383L727.554 351.524H724.618C724.073 351.521 723.53 351.443 723.005 351.292C721.26 350.809 720.414 349.878 720.414 348.339V348.339ZM723.376 348.179C723.376 348.268 723.402 348.358 723.429 348.465C723.587 349.235 724.302 349.664 725.385 349.664H727.878L725.588 347.566H728.775L730.772 349.396C731.141 349.196 731.382 348.893 731.467 348.501C731.493 348.412 731.493 348.322 731.493 348.233V341.882C731.493 341.811 731.493 341.721 731.467 341.631C731.308 340.915 730.594 340.505 729.537 340.505H725.385C724.169 340.505 723.375 341.042 723.375 341.882V348.179H723.376ZM750.361 335.539C748.674 335.492 747.386 335.651 746.284 336.123C745.97 336.257 745.471 336.26 745.421 336.658C745.592 336.842 745.619 337.115 745.756 337.34C746.019 337.772 746.463 338.351 746.859 338.654C747.292 338.985 747.738 339.341 748.203 339.628C749.028 340.139 749.95 340.431 750.745 340.942C751.213 341.244 751.678 341.624 752.136 341.965C752.362 342.132 752.513 342.395 752.808 342.5V342.452C752.653 342.252 752.613 341.978 752.472 341.77L751.848 341.136C751.238 340.315 750.465 339.594 749.641 338.995C748.985 338.517 747.517 337.871 747.243 337.096L747.195 337.048C747.66 336.994 748.205 336.824 748.634 336.707C749.355 336.51 750 336.561 750.744 336.366L751.752 336.073V335.879C751.376 335.487 751.106 334.968 750.696 334.613C749.623 333.685 748.45 332.758 747.243 331.984C746.574 331.555 745.746 331.277 745.036 330.913C744.798 330.791 744.379 330.728 744.22 330.524C743.847 330.042 743.644 329.431 743.357 328.869C742.742 327.655 742.166 326.421 741.63 325.169C741.267 324.325 741.029 323.492 740.575 322.735C738.397 319.101 736.052 316.907 732.421 314.751C731.648 314.292 730.717 314.112 729.735 313.875L728.151 313.778C727.83 313.641 727.495 313.241 727.192 313.047C725.989 312.276 722.903 310.598 722.011 312.805C721.449 314.197 722.853 315.556 723.355 316.261C723.707 316.756 724.158 317.311 724.41 317.867C724.576 318.234 724.604 318.6 724.746 318.987C725.094 319.941 725.398 320.978 725.849 321.859C726.077 322.305 726.329 322.775 726.616 323.174C726.793 323.418 727.096 323.526 727.144 323.904C726.848 324.324 726.83 324.978 726.664 325.51C725.914 327.909 726.197 330.891 727.288 332.666C727.622 333.212 728.411 334.381 729.494 333.932C730.442 333.54 730.231 332.326 730.502 331.254C730.564 331.012 730.525 330.833 730.646 330.671V330.72L731.509 332.472C732.149 333.517 733.282 334.607 734.243 335.344C734.742 335.726 735.134 336.387 735.778 336.61V336.56H735.731C735.605 336.363 735.411 336.282 735.251 336.123C734.875 335.749 734.458 335.285 734.148 334.857C733.274 333.653 732.501 332.334 731.797 330.962C731.461 330.307 731.169 329.585 730.886 328.918C730.777 328.661 730.778 328.272 730.551 328.139C730.24 328.627 729.783 329.023 729.543 329.6C729.159 330.522 729.11 331.646 728.968 332.812L728.872 332.86C728.203 332.697 727.968 331.999 727.72 331.4C727.092 329.886 726.975 327.448 727.528 325.705C727.671 325.253 728.317 323.833 728.055 323.416C727.93 323.001 727.518 322.761 727.288 322.442C726.987 322.016 726.73 321.559 726.521 321.079C726.007 319.899 725.767 318.573 725.226 317.379C724.967 316.809 724.53 316.232 724.171 315.725C723.774 315.162 723.328 314.748 723.019 314.069C722.91 313.828 722.761 313.441 722.923 313.193C722.975 313.025 723.049 312.955 723.212 312.9C723.49 312.683 724.265 312.973 724.554 313.095C725.324 313.42 725.966 313.728 726.618 314.166C726.93 314.377 727.246 314.784 727.625 314.896H728.057C728.732 315.053 729.489 314.944 730.119 315.139C731.235 315.483 732.234 316.018 733.141 316.6C735.906 318.372 738.166 320.894 739.713 323.902C739.961 324.387 740.069 324.849 740.288 325.363C740.73 326.398 741.287 327.465 741.727 328.478C742.166 329.489 742.594 330.509 743.214 331.351C743.54 331.793 744.8 332.03 745.373 332.275C745.774 332.448 746.431 332.627 746.811 332.859C747.537 333.304 748.242 333.833 748.922 334.32C749.262 334.565 750.309 335.099 750.361 335.539V335.539ZM728.92 316.992C728.629 316.987 728.339 317.02 728.056 317.089V317.137H728.104C728.272 317.488 728.568 317.713 728.775 318.014L729.256 319.036L729.303 318.988C729.6 318.776 729.736 318.436 729.735 317.917C729.615 317.789 729.598 317.63 729.495 317.479C729.359 317.276 729.093 317.162 728.92 316.992V316.992Z" fill="#00618A"/>
<path fill-rule="evenodd" clip-rule="evenodd" d="M509.17 365.494C509.283 365.274 509.392 365.079 509.484 364.878C509.542 364.749 509.631 364.723 509.758 364.727C510.514 364.749 511.271 364.772 512.029 364.78C512.672 364.786 513.317 364.774 513.96 364.767C514.686 364.758 515.411 364.719 516.136 364.74C517.101 364.769 518.042 364.961 518.915 365.397C519.958 365.918 520.746 366.712 521.284 367.758C521.622 368.421 521.833 369.143 521.906 369.887C522.021 370.977 521.945 372.042 521.605 373.084C521.183 374.376 520.381 375.365 519.268 376.106C518.411 376.677 517.471 377.014 516.463 377.206C515.397 377.41 514.328 377.344 513.258 377.348C512.085 377.352 510.913 377.327 509.74 377.313C509.535 377.311 509.506 377.272 509.56 377.073L509.61 376.89C509.724 376.525 509.786 376.509 510.15 376.448C510.409 376.407 510.656 376.311 510.876 376.168C510.999 376.085 511.05 375.87 511.098 375.704C511.14 375.559 511.142 375.399 511.143 375.246C511.16 372.924 511.177 370.603 511.186 368.283C511.189 367.696 511.174 367.109 511.143 366.523C511.12 366.113 510.904 365.832 510.424 365.735C510.049 365.66 509.673 365.601 509.297 365.534L509.17 365.494V365.494ZM519.909 371.116C519.858 370.654 519.833 370.188 519.752 369.732C519.557 368.638 519.085 367.686 518.257 366.94C516.918 365.734 515.305 365.548 513.615 365.692C513.23 365.724 513.148 365.858 513.142 366.259C513.132 366.828 513.123 367.398 513.122 367.967C513.119 369.773 513.119 371.579 513.122 373.385C513.123 373.899 513.128 374.413 513.143 374.926C513.159 375.45 513.347 375.894 513.853 376.098C514.651 376.418 515.491 376.456 516.328 376.325C517.666 376.117 518.602 375.326 519.23 374.14C519.727 373.2 519.867 372.172 519.909 371.116V371.116ZM523.161 377.266C523.145 376.984 523.259 376.752 523.399 376.538C523.437 376.481 523.568 376.483 523.658 376.465L524.424 376.311C524.694 376.253 524.836 376.068 524.875 375.799C524.9 375.622 524.924 375.442 524.926 375.262C524.944 373.841 524.957 372.419 524.965 370.998C524.972 369.574 524.967 368.15 524.967 366.727L524.961 366.455C524.933 365.997 524.716 365.76 524.268 365.693L523.297 365.543C523.178 365.527 523.134 365.468 523.178 365.361C523.253 365.177 523.324 364.986 523.43 364.821C523.469 364.76 523.602 364.736 523.692 364.738C524.155 364.745 524.619 364.78 525.082 364.78L529.117 364.755C529.895 364.755 530.646 364.892 531.343 365.27C532.111 365.685 532.54 366.327 532.663 367.201C532.791 368.12 532.517 368.894 531.856 369.509C531.584 369.762 531.232 369.928 530.916 370.134L530.813 370.199C531.106 370.308 531.385 370.402 531.656 370.515C532.449 370.845 533.081 371.361 533.415 372.185C533.678 372.835 533.678 373.513 533.522 374.187C533.279 375.241 532.594 375.943 531.704 376.474C530.868 376.972 529.964 377.262 529.001 377.311C528.112 377.357 527.22 377.34 526.329 377.35L525.814 377.352C524.956 377.332 524.097 377.311 523.239 377.287L523.161 377.266V377.266ZM526.86 373.138H526.868C526.868 373.584 526.862 374.03 526.87 374.476C526.876 374.765 526.866 375.062 526.927 375.34C527.019 375.755 527.206 376.13 527.666 376.249C528.28 376.413 528.922 376.442 529.548 376.334C530.335 376.195 530.962 375.795 531.306 375.035C531.561 374.47 531.599 373.871 531.512 373.26C531.395 372.454 530.974 371.87 530.273 371.487C529.814 371.236 529.323 371.082 528.801 371.061C528.216 371.039 527.63 371.038 527.045 371.019C526.88 371.015 526.858 371.099 526.858 371.236C526.862 371.869 526.86 372.503 526.86 373.138V373.138ZM528.106 370.104C528.425 370.088 528.788 370.083 529.148 370.046C529.837 369.977 530.323 369.625 530.576 368.956C530.705 368.616 530.699 368.266 530.703 367.913C530.713 366.993 530.184 366.239 529.323 365.927C528.658 365.687 527.973 365.683 527.283 365.702C527.004 365.709 526.879 365.833 526.875 366.119L526.834 369.84C526.832 369.988 526.894 370.051 527.036 370.056L528.106 370.104V370.104Z" fill="#94795D"/>
<path fill-rule="evenodd" clip-rule="evenodd" d="M457.926 376.55L457.877 377.19C457.423 377.19 457.004 377.187 456.585 377.192C455.796 377.2 455.008 377.213 454.218 377.224L454.142 377.229C454.029 377.216 453.824 377.216 453.819 377.182C453.785 376.991 453.796 376.791 453.805 376.594C453.805 376.572 453.882 376.543 453.927 376.532L454.541 376.393C454.923 376.292 455.058 376.125 455.076 375.723C455.097 375.271 455.118 374.818 455.12 374.366C455.126 373.253 455.119 372.141 455.124 371.028C455.124 370.768 455.036 370.574 454.797 370.468C454.512 370.34 454.226 370.217 453.938 370.098C453.802 370.042 453.625 370.012 453.641 369.826C453.657 369.637 453.829 369.588 453.99 369.55C454.66 369.395 455.33 369.244 455.997 369.078C456.212 369.025 456.418 368.935 456.675 368.844C456.688 368.985 456.713 369.119 456.71 369.253L456.671 369.891C456.67 369.963 456.707 370.059 456.76 370.099C456.792 370.124 456.899 370.079 456.953 370.037C457.523 369.596 458.127 369.216 458.816 368.994C459.882 368.651 460.798 368.969 461.44 369.903C461.665 370.232 461.666 370.232 461.979 370.002C462.517 369.605 463.079 369.255 463.709 369.025C465.09 368.518 466.417 369.161 466.898 370.573C467.073 371.086 467.139 371.615 467.138 372.156L467.125 375.748C467.125 376.044 467.222 376.213 467.499 376.305C467.811 376.409 468.135 376.48 468.486 376.574L468.405 377.191C468.005 377.191 467.638 377.188 467.27 377.192C466.373 377.2 465.475 377.205 464.578 377.226C464.421 377.23 464.381 377.19 464.373 377.042C464.347 376.567 464.343 376.567 464.783 376.46L464.932 376.422C465.363 376.302 465.506 376.168 465.509 375.725C465.52 374.452 465.546 373.175 465.482 371.905C465.416 370.587 464.385 369.885 463.127 370.223C462.721 370.336 462.338 370.523 461.998 370.775C461.881 370.859 461.859 370.957 461.868 371.105C461.904 371.667 461.926 372.229 461.93 372.791C461.939 373.774 461.926 374.758 461.93 375.742C461.932 376.141 462.066 376.294 462.454 376.386L463.031 376.521L463.138 376.545C463.146 376.732 463.153 376.919 463.144 377.106C463.139 377.224 463.049 377.234 462.949 377.232C462.389 377.218 461.828 377.199 461.267 377.2C460.585 377.201 459.904 377.221 459.223 377.233H459.062C459.062 377.035 459.053 376.845 459.069 376.656C459.072 376.61 459.151 376.546 459.205 376.532L459.877 376.388C460.162 376.317 460.299 376.168 460.315 375.874C460.391 374.511 460.446 373.148 460.319 371.786C460.289 371.517 460.215 371.255 460.102 371.01C459.758 370.238 458.983 369.916 458.09 370.148C457.666 370.258 457.283 370.455 456.921 370.704C456.842 370.753 456.778 370.823 456.733 370.906C456.689 370.988 456.667 371.081 456.669 371.175C456.669 372.534 456.674 373.894 456.678 375.252L456.685 375.776C456.693 376.142 456.846 376.334 457.203 376.413C457.433 376.466 457.665 376.502 457.926 376.55V376.55Z" fill="#50382B"/>
<path fill-rule="evenodd" clip-rule="evenodd" d="M498.31 368.983C498.414 369.494 498.412 369.954 498.042 370.302C497.674 370.648 497.21 370.532 496.756 370.455C496.798 370.697 496.845 370.903 496.868 371.112C497.033 372.664 496.375 373.816 494.956 374.474C494.421 374.722 493.852 374.814 493.272 374.862C492.983 374.885 492.731 375.108 492.703 375.349C492.675 375.593 492.826 375.844 493.128 375.917C493.484 376.003 493.856 376.028 494.221 376.07C495.005 376.161 495.798 376.203 496.573 376.345C497.745 376.559 498.399 377.597 498.192 378.792C498.008 379.855 497.402 380.628 496.556 381.221C495.131 382.223 493.568 382.516 491.904 382.005C490.952 381.712 490.281 381.077 490.049 380.049C489.933 379.535 490.056 379.069 490.438 378.72C490.891 378.306 491.385 377.937 491.86 377.547L492.013 377.39L491.837 377.265C491.353 377.032 490.965 376.712 490.815 376.158C490.764 375.97 490.817 375.847 490.974 375.75C491.241 375.587 491.507 375.421 491.771 375.252C491.895 375.174 492.018 375.092 492.134 375.001C492.291 374.879 492.277 374.789 492.089 374.718C491.651 374.554 491.261 374.316 490.959 373.95C490.455 373.339 490.312 372.612 490.353 371.844C490.418 370.644 491.06 369.853 492.104 369.345C493.344 368.741 494.588 368.703 495.853 369.253C496.32 369.457 496.813 369.5 497.315 369.465C497.69 369.438 498.017 369.294 498.31 368.983V368.983ZM493.739 377.58C492.808 377.571 492.516 377.688 491.97 378.253C491.358 378.886 491.361 379.764 491.972 380.4C492.436 380.882 493.014 381.107 493.657 381.175C494.409 381.254 495.149 381.222 495.831 380.84C496.56 380.432 496.922 379.672 496.758 378.908C496.622 378.276 496.164 377.988 495.606 377.822C494.972 377.633 494.316 377.597 493.739 377.58V377.58ZM491.91 371.541C491.945 371.803 491.959 372.069 492.016 372.326C492.165 372.991 492.45 373.576 493.103 373.873C493.869 374.222 494.848 374.072 495.183 372.981C495.412 372.254 495.385 371.47 495.107 370.761C494.99 370.437 494.778 370.157 494.5 369.958C493.834 369.487 492.634 369.425 492.145 370.466C491.986 370.804 491.924 371.164 491.91 371.541V371.541Z" fill="#4F382B"/>
<path fill-rule="evenodd" clip-rule="evenodd" d="M482.512 368.815C482.537 368.931 482.586 369.063 482.588 369.195C482.59 369.446 482.563 369.698 482.549 369.95V370.168L482.759 370.005C483.333 369.525 483.95 369.116 484.669 368.896C485.966 368.499 487.262 369.22 487.685 370.561C487.845 371.071 487.909 371.595 487.915 372.128C487.928 373.311 487.936 374.495 487.948 375.679C487.952 376.104 488 376.18 488.396 376.302C488.622 376.371 488.852 376.422 489.084 376.458C489.212 376.478 489.267 376.529 489.26 376.656L489.261 376.772C489.257 377.262 489.223 377.285 488.755 377.283C487.634 377.281 486.514 377.288 485.393 377.298C485.059 377.3 485.058 377.31 485.025 376.975L485.018 376.783C485.039 376.494 485.046 376.497 485.326 376.455C485.514 376.426 485.701 376.382 485.885 376.334C486.074 376.284 486.165 376.142 486.19 375.953C486.203 375.856 486.219 375.76 486.219 375.664C486.203 374.37 486.223 373.075 486.154 371.784C486.098 370.739 485.312 370.117 484.279 370.188C483.781 370.223 483.302 370.397 482.896 370.692C482.62 370.888 482.564 371.17 482.566 371.475C482.571 372.684 482.582 373.894 482.595 375.104C482.598 375.369 482.605 375.634 482.63 375.897C482.656 376.184 482.755 376.3 483.033 376.363C483.299 376.422 483.57 376.457 483.854 376.505L483.878 376.727C483.888 377.246 483.834 377.285 483.338 377.283C482.179 377.278 481.02 377.285 479.862 377.298C479.679 377.301 479.602 377.243 479.606 377.062L479.604 376.985C479.574 376.518 479.587 376.5 480.023 376.424L480.228 376.382C480.7 376.275 480.821 376.147 480.828 375.661C480.85 374.121 480.858 372.583 480.873 371.043C480.875 370.822 480.793 370.65 480.59 370.559C480.305 370.432 480.018 370.309 479.73 370.19C479.571 370.124 479.389 370.082 479.383 369.859C479.379 369.701 479.545 369.562 479.771 369.516C480.226 369.422 480.685 369.344 481.135 369.23C481.582 369.116 482.022 368.964 482.512 368.815Z" fill="#4F372B"/>
<path fill-rule="evenodd" clip-rule="evenodd" d="M507.571 372.837C507.55 374.275 507.182 375.437 506.18 376.31C504.911 377.417 502.931 377.793 501.312 376.965C500.622 376.612 500.114 376.07 499.783 375.367C499.276 374.286 499.15 373.149 499.414 371.985C499.676 370.833 500.363 369.998 501.392 369.458C502.45 368.903 503.564 368.686 504.739 368.977C506.225 369.345 507.293 370.575 507.506 372.141C507.544 372.416 507.559 372.694 507.571 372.837V372.837ZM505.85 373.616L505.793 373.609C505.793 373.473 505.8 373.338 505.791 373.202C505.742 372.357 505.555 371.553 505.073 370.846C504.616 370.176 503.992 369.781 503.181 369.723C502.274 369.658 501.511 370.173 501.243 371.114C500.841 372.527 500.977 373.904 501.684 375.198C501.992 375.762 502.448 376.178 503.059 376.397C504.257 376.825 505.319 376.271 505.631 375.026C505.746 374.567 505.779 374.086 505.85 373.616Z" fill="#4F382B"/>
<path fill-rule="evenodd" clip-rule="evenodd" d="M478.15 372.948C478.125 373.98 477.885 374.934 477.257 375.763C476.585 376.651 475.66 377.125 474.609 377.325C473.366 377.561 472.198 377.347 471.199 376.5C470.725 376.098 470.401 375.582 470.187 374.995C469.837 374.032 469.749 373.046 469.965 372.04C470.195 370.964 470.794 370.142 471.722 369.59C472.794 368.954 473.952 368.67 475.188 368.956C476.778 369.325 477.696 370.376 478.035 371.968C478.104 372.289 478.113 372.621 478.15 372.948V372.948ZM476.409 373.629L476.363 373.622V373.428C476.337 372.482 476.154 371.58 475.598 370.794C475.186 370.21 474.634 369.844 473.927 369.741C472.774 369.575 472.02 370.269 471.77 371.212C471.444 372.444 471.547 373.661 472.051 374.829C472.366 375.557 472.863 376.124 473.626 376.399C474.816 376.828 475.895 376.26 476.196 375.02C476.307 374.567 476.34 374.094 476.409 373.629V373.629Z" fill="#4F372B"/>
<path fill-rule="evenodd" clip-rule="evenodd" d="M505.899 320.348C506.719 322.753 507.308 325.207 507.503 327.751C507.743 330.907 507.634 334.042 506.978 337.146L506.893 337.394C506.688 337.395 506.478 337.369 506.277 337.4C504.578 337.672 502.882 337.952 501.184 338.232C499.429 338.52 497.673 338.798 495.922 339.105C495.301 339.214 494.533 339.084 494.283 339.955L494.162 339.996L494.247 334.791L494.161 322.232L494.979 322.09C496.315 321.868 497.652 321.642 498.991 321.426C500.587 321.169 502.185 320.918 503.783 320.667C504.488 320.558 505.194 320.455 505.899 320.348V320.348Z" fill="#439934"/>
<path fill-rule="evenodd" clip-rule="evenodd" d="M492.475 355.171C491.613 354.418 490.72 353.699 489.894 352.907C485.447 348.65 482.193 343.638 480.59 337.596C480.149 335.933 479.855 334.243 479.76 332.526C479.693 331.323 479.598 330.11 479.682 328.914C479.904 325.732 480.358 322.581 481.277 319.516L481.328 319.445C481.417 319.566 481.546 319.673 481.591 319.809C482.489 322.491 483.379 325.176 484.266 327.862C487.05 336.303 489.832 344.746 492.621 353.185C492.676 353.35 492.817 353.485 492.919 353.633L492.475 355.171V355.171Z" fill="#45A538"/>
<path fill-rule="evenodd" clip-rule="evenodd" d="M505.899 320.348C505.193 320.454 504.487 320.558 503.782 320.667C502.185 320.918 500.587 321.169 498.99 321.426C497.652 321.642 496.316 321.867 494.979 322.09L494.161 322.232L494.154 321.691C494.127 321.246 494.081 320.802 494.075 320.357L493.984 311.846C493.963 310.071 493.93 308.295 493.895 306.52C493.877 305.417 493.846 304.315 493.801 303.212C493.774 302.62 493.68 302.031 493.643 301.439C493.621 301.099 493.65 300.756 493.657 300.414C494.074 301.234 494.482 302.06 494.91 302.873C495.587 304.159 496.666 305.107 497.638 306.141C501.476 310.229 504.201 314.98 505.899 320.348V320.348Z" fill="#46A037"/>
<path fill-rule="evenodd" clip-rule="evenodd" d="M494.163 339.996L494.283 339.955C494.534 339.084 495.302 339.214 495.922 339.105C497.674 338.798 499.43 338.52 501.185 338.232C502.882 337.953 504.579 337.672 506.277 337.401C506.479 337.369 506.688 337.395 506.894 337.394C506.577 338.544 506.327 339.719 505.924 340.837C505.467 342.105 504.913 343.343 504.326 344.556C503.447 346.366 502.359 348.063 501.085 349.612C500.105 350.806 499.014 351.912 497.92 353.003C497.315 353.606 496.603 354.097 495.939 354.639L495.767 354.52L495.148 353.983L494.507 352.557C494.069 350.894 493.831 349.183 493.796 347.462L493.808 347.171L493.895 345.915C493.924 345.485 493.963 345.057 493.981 344.628C494.045 343.085 494.102 341.541 494.163 339.996V339.996Z" fill="#409433"/>
<path fill-rule="evenodd" clip-rule="evenodd" d="M494.163 339.996C494.103 341.54 494.045 343.085 493.981 344.63C493.963 345.06 493.925 345.488 493.895 345.916L493.505 346.066C492.638 343.476 491.77 340.913 490.922 338.343C489.519 334.092 488.133 329.835 486.731 325.582C485.599 322.15 484.46 318.721 483.312 315.294C483.258 315.134 483.105 315.008 482.998 314.866L485.496 310.204C485.582 310.355 485.695 310.497 485.749 310.66C486.905 314.131 488.058 317.602 489.202 321.077C490.69 325.599 492.168 330.123 493.655 334.645C493.715 334.826 493.812 334.992 493.906 335.195L494.248 334.791L494.163 339.996Z" fill="#4FAA41"/>
<path fill-rule="evenodd" clip-rule="evenodd" d="M482.997 314.866C483.105 315.008 483.258 315.134 483.312 315.294C484.459 318.721 485.599 322.15 486.73 325.582C488.132 329.835 489.518 334.092 490.921 338.343C491.77 340.913 492.637 343.475 493.504 346.066L493.894 345.917L493.807 347.173L493.727 347.463C493.592 348.838 493.478 350.217 493.312 351.589C493.229 352.277 493.052 352.953 492.918 353.633C492.817 353.485 492.675 353.35 492.621 353.185C489.83 344.746 487.05 336.303 484.265 327.862C483.379 325.176 482.487 322.492 481.59 319.809C481.545 319.673 481.417 319.566 481.327 319.445L482.997 314.866V314.866Z" fill="#4AA73C"/>
<path fill-rule="evenodd" clip-rule="evenodd" d="M494.247 334.791L493.905 335.195C493.812 334.993 493.714 334.826 493.655 334.645C492.168 330.123 490.69 325.599 489.201 321.078C488.056 317.603 486.905 314.13 485.749 310.66C485.694 310.497 485.582 310.355 485.495 310.204L488.585 306.08C488.682 306.211 488.821 306.329 488.871 306.477C489.729 309.026 490.579 311.577 491.424 314.13C492.214 316.515 492.991 318.903 493.79 321.284C493.844 321.443 494.03 321.555 494.154 321.691L494.161 322.232L494.247 334.791V334.791Z" fill="#57AE47"/>
<path fill-rule="evenodd" clip-rule="evenodd" d="M494.154 321.691C494.029 321.556 493.844 321.444 493.79 321.284C492.992 318.903 492.214 316.515 491.424 314.13C490.579 311.577 489.728 309.026 488.871 306.477C488.821 306.329 488.682 306.211 488.585 306.08C489.589 305.081 490.563 304.047 491.608 303.094C492.537 302.248 493.284 301.341 493.319 300.004L493.392 299.737L493.657 300.414C493.65 300.755 493.62 301.098 493.642 301.439C493.68 302.031 493.774 302.62 493.8 303.212C493.849 304.313 493.872 305.417 493.894 306.52C493.93 308.295 493.962 310.07 493.983 311.846L494.075 320.356C494.081 320.802 494.128 321.246 494.154 321.691V321.691Z" fill="#60B24F"/>
<path fill-rule="evenodd" clip-rule="evenodd" d="M492.919 353.633C493.053 352.952 493.23 352.277 493.313 351.589C493.478 350.217 493.593 348.838 493.728 347.462L493.762 347.457L493.796 347.463C493.83 349.184 494.069 350.895 494.507 352.558C494.417 352.679 494.291 352.785 494.242 352.921C493.872 353.982 493.522 355.053 493.149 356.114C493.098 356.259 492.955 356.372 492.856 356.499L492.474 355.17L492.919 353.633Z" fill="#A9AA88"/>
<path fill-rule="evenodd" clip-rule="evenodd" d="M492.856 356.5C492.955 356.372 493.098 356.26 493.149 356.115C493.522 355.054 493.872 353.983 494.242 352.922C494.29 352.786 494.417 352.68 494.507 352.559L495.148 353.985C495.021 354.167 494.846 354.332 494.776 354.534L493.55 358.19C493.499 358.337 493.327 358.44 493.211 358.564L492.856 356.5V356.5Z" fill="#B6B598"/>
<path fill-rule="evenodd" clip-rule="evenodd" d="M493.211 358.563C493.327 358.439 493.499 358.336 493.55 358.189L494.776 354.534C494.846 354.331 495.021 354.166 495.148 353.984L495.768 354.521C495.468 354.821 495.302 355.168 495.402 355.607L495.214 356.232C495.128 356.34 495.004 356.433 494.962 356.556C494.534 357.801 494.126 359.052 493.694 360.296C493.639 360.453 493.488 360.577 493.382 360.717L493.211 358.563V358.563Z" fill="#C2C1A7"/>
<path fill-rule="evenodd" clip-rule="evenodd" d="M493.381 360.716C493.488 360.577 493.639 360.453 493.693 360.295C494.125 359.051 494.534 357.8 494.961 356.555C495.003 356.432 495.128 356.34 495.213 356.232L494.953 359.103C494.884 359.185 494.784 359.256 494.75 359.35L493.886 361.864C493.825 362.036 493.709 362.189 493.618 362.349C493.537 362.242 493.393 362.139 493.386 362.027C493.361 361.592 493.379 361.154 493.381 360.716V360.716Z" fill="#CECDB7"/>
<path fill-rule="evenodd" clip-rule="evenodd" d="M493.619 362.35C493.709 362.189 493.826 362.036 493.887 361.865L494.751 359.351C494.784 359.256 494.885 359.185 494.954 359.104L494.961 360.989L494.339 362.607L493.619 362.35V362.35Z" fill="#DBDAC7"/>
<path fill-rule="evenodd" clip-rule="evenodd" d="M494.339 362.607L494.961 360.989L495.089 362.903L494.339 362.607V362.607Z" fill="#EBE9DC"/>
<path fill-rule="evenodd" clip-rule="evenodd" d="M495.402 355.607C495.302 355.169 495.468 354.822 495.767 354.521L495.939 354.64L495.402 355.607V355.607Z" fill="#CECDB7"/>
<path fill-rule="evenodd" clip-rule="evenodd" d="M493.796 347.463L493.762 347.457L493.728 347.463L493.808 347.173L493.796 347.463V347.463Z" fill="#4FAA41"/>
<path d="M447.816 160.944H531.436V245.81H447.816V160.944Z" fill="#F0DB4F"/>
<path d="M524.592 225.569C523.98 221.698 521.492 218.446 514.124 215.413C511.564 214.219 508.711 213.364 507.86 211.396C507.558 210.25 507.518 209.605 507.709 208.911C508.258 206.661 510.905 205.959 513.003 206.604C514.354 207.064 515.634 208.121 516.405 209.807C520.013 207.435 520.006 207.451 522.526 205.821C521.603 204.37 521.111 203.7 520.507 203.079C518.337 200.619 515.38 199.352 510.65 199.449L508.187 199.772C505.826 200.378 503.577 201.635 502.257 203.321C498.299 207.879 499.428 215.857 504.245 219.14C508.99 222.755 515.961 223.577 516.851 226.957C517.718 231.096 513.855 232.435 510.015 231.959C507.186 231.362 505.612 229.902 503.911 227.248C500.779 229.088 500.779 229.088 497.559 230.967C498.323 232.661 499.125 233.428 500.405 234.895C506.462 241.131 521.62 240.824 524.339 231.386C524.449 231.062 525.181 228.901 524.592 225.569V225.569ZM493.274 199.948H485.453L485.421 220.47C485.421 224.835 485.643 228.836 484.944 230.062C483.8 232.474 480.835 232.175 479.483 231.708C478.108 231.022 477.409 230.046 476.598 228.667C476.376 228.271 476.209 227.965 476.153 227.941L469.794 231.893C470.851 234.096 472.409 236.008 474.404 237.25C477.385 239.065 481.39 239.622 485.58 238.646C488.307 237.84 490.659 236.17 491.891 233.628C493.672 230.296 493.29 226.263 493.274 221.803C493.314 214.525 493.274 207.249 493.274 199.948V199.948Z" fill="#323330"/>
<path d="M471.979 45.9747C471.979 45.9747 469.785 47.2702 473.542 47.7081C478.094 48.2355 480.421 48.1596 485.436 47.1977C485.436 47.1977 486.758 48.0362 488.599 48.763C477.353 53.6528 463.146 48.4796 471.979 45.9747ZM470.603 39.592C470.603 39.592 468.143 41.4421 471.903 41.8366C476.765 42.3458 480.604 42.3878 487.252 41.0889C487.252 41.0889 488.169 42.0353 489.614 42.5512C476.019 46.5875 460.877 42.8691 470.603 39.592V39.592Z" fill="#0074BD"/>
<path d="M482.188 28.7649C484.961 32.004 481.461 34.9163 481.461 34.9163C481.461 34.9163 488.497 31.2305 485.266 26.6132C482.247 22.309 479.934 20.1715 492.461 12.7985C492.461 12.7985 472.797 17.7812 482.188 28.7649Z" fill="#EA2D2E"/>
<path d="M497.062 50.6957C497.062 50.6957 498.686 52.055 495.273 53.1057C488.783 55.1009 468.258 55.7029 462.556 53.1851C460.508 52.28 464.351 51.0245 465.56 50.7608C466.82 50.4835 467.54 50.5344 467.54 50.5344C465.261 48.9053 452.808 53.7335 461.215 55.1185C484.143 58.8898 503.008 53.4196 497.062 50.6957V50.6957ZM473.035 32.9789C473.035 32.9789 462.595 35.496 469.338 36.4112C472.187 36.7976 477.86 36.7088 483.149 36.2587C487.471 35.8906 491.807 35.1035 491.807 35.1035C491.807 35.1035 490.285 35.7665 489.182 36.5299C478.578 39.3602 458.099 38.0416 463.995 35.1483C468.98 32.7003 473.035 32.9789 473.035 32.9789V32.9789ZM491.764 43.6019C502.541 37.9196 497.558 32.4583 494.079 33.1938C493.229 33.3741 492.847 33.5301 492.847 33.5301C492.847 33.5301 493.164 33.0257 493.768 32.8094C500.649 30.3553 505.94 40.0503 491.548 43.8901C491.548 43.8901 491.713 43.7382 491.764 43.6019Z" fill="#0074BD"/>
<path d="M485.267 0.890137C485.267 0.890137 491.235 6.95008 479.605 16.2668C470.279 23.7422 477.478 28.0036 479.601 32.8745C474.157 27.8891 470.164 23.5002 472.843 19.4164C476.776 13.4222 487.674 10.5146 485.267 0.890137V0.890137Z" fill="#EA2D2E"/>
<path d="M474.095 59.0057C484.438 59.6769 500.326 58.6322 500.702 53.665C500.702 53.665 499.979 55.5476 492.152 57.0418C483.323 58.7284 472.432 58.5325 465.974 57.4506C465.974 57.4506 467.296 58.5623 474.095 59.0057V59.0057Z" fill="#0074BD"/>
<path d="M500.224 67.915H499.909V67.736H500.757V67.915H500.443V68.8078H500.224L500.224 67.915V67.915ZM501.918 67.9597H501.914L501.601 68.8078H501.457L501.146 67.9597H501.143V68.8078H500.934V67.736H501.24L501.527 68.4946L501.816 67.736H502.119V68.8078H501.918V67.9597V67.9597ZM472.4 77.9862C471.424 78.8444 470.393 79.3271 469.467 79.3271C468.148 79.3271 467.433 78.5231 467.433 77.2357C467.433 75.8426 468.198 74.8223 471.265 74.8223H472.399V77.9862H472.4ZM475.092 81.0694V71.5262C475.092 69.0864 473.721 67.477 470.418 67.477C468.491 67.477 466.801 67.9611 465.427 68.5766L465.822 70.2667C466.904 69.8633 468.304 69.4891 469.677 69.4891C471.581 69.4891 472.399 70.2667 472.399 71.8761V73.0821H471.448C466.825 73.0821 464.739 74.9023 464.739 77.6397C464.739 79.9982 466.113 81.3385 468.702 81.3385C470.365 81.3385 471.608 80.6416 472.768 79.6213L472.979 81.07H475.092V81.0694V81.0694ZM484.078 81.0694H480.72L476.678 67.7217H479.611L482.12 75.9239L482.678 78.3882C483.944 74.8237 484.842 71.2049 485.291 67.7224H488.144C487.38 72.116 486.004 76.9408 484.078 81.0694V81.0694ZM496.962 77.9862C495.983 78.8444 494.951 79.3271 494.028 79.3271C492.708 79.3271 491.993 78.5231 491.993 77.2357C491.993 75.8426 492.761 74.8223 495.825 74.8223H496.961V77.9862H496.962ZM499.656 81.0694V71.5262C499.656 69.0864 498.28 67.477 494.981 67.477C493.051 67.477 491.362 67.9611 489.987 68.5766L490.384 70.2667C491.466 69.8633 492.867 69.4891 494.24 69.4891C496.142 69.4891 496.962 70.2667 496.962 71.8761V73.0821H496.011C491.386 73.0821 489.301 74.9023 489.301 77.6397C489.301 79.9982 490.674 81.3385 493.262 81.3385C494.926 81.3385 496.167 80.6416 497.331 79.6213L497.543 81.07H499.656V81.0694V81.0694ZM461.786 83.3377C461.02 84.4759 459.779 85.3769 458.422 85.8846L457.093 84.2949C458.126 83.7566 459.011 82.8882 459.424 82.0788C459.779 81.3581 459.927 80.4314 459.927 78.2139V62.9729H462.788V78.0045C462.788 80.9704 462.556 82.1696 461.786 83.3377Z" fill="#EA2D2E"/>
<path d="M18.6057 238.869L13.2332 177.713H72.2675L66.8896 238.859L42.7143 245.661L18.6057 238.869Z" fill="#E44D26"/>
<path d="M42.7505 240.462L62.2848 234.965L66.8811 182.714H42.7505V240.462Z" fill="#F16529"/>
<path d="M42.7504 205.395H32.9706L32.2959 197.714H42.7504V190.213H24.2188L24.3951 192.226L26.212 212.895H42.7504V205.395ZM42.7504 224.874L42.7177 224.883L34.4875 222.627L33.9612 216.646H26.542L27.5773 228.422L42.7163 232.688L42.7504 232.678V224.874Z" fill="#EBEBEB"/>
<path d="M18.7261 161.093H22.4814V164.859H25.9175V161.093H29.6735V172.497H25.9175V168.678H22.4821V172.497H18.7261V161.093V161.093ZM34.6119 164.875H31.3054V161.093H41.6757V164.875H38.3679V172.497H34.6119V164.875V164.875ZM43.3216 161.093H47.2373L49.6467 165.1L52.0534 161.093H55.9711V172.497H52.2297V166.844L49.6467 170.899H49.5812L46.9961 166.844V172.497H43.3209V161.093H43.3216ZM57.8407 161.093H61.5974V168.727H66.8791V172.497H57.8407V161.093V161.093Z" fill="white"/>
<path d="M42.7251 205.395V212.895H51.8256L50.9679 222.623L42.7251 224.881V232.684L57.8761 228.422L57.987 227.155L59.7237 207.409L59.9041 205.395H57.9122H42.7251ZM42.7251 190.213V197.714H60.5767L60.7244 196.028L61.0617 192.226L61.2387 190.213H42.7251Z" fill="white"/>
<path d="M497.644 469.521C492.531 469.521 489.99 472.23 489.99 476.13C489.99 478.641 491.227 480.42 492.865 481.234C492.063 481.981 491.395 482.634 490.793 483.278C490.19 483.923 489.823 484.604 489.823 485.351C489.823 486.268 490.19 487.117 491.294 487.591C490.124 488.712 489.455 489.525 489.455 491.053C489.455 493.733 491.761 495.294 497.812 495.294C503.629 495.294 507.004 493.09 507.004 489.188C507.004 484.678 503.595 484.507 497.812 484.133L494.536 483.93L495.64 482.132C496.24 482.301 497.211 482.437 498.282 482.437C502.493 482.437 505.401 480.232 505.401 476.466C505.401 474.905 504.641 473.82 504.04 473.039L506.993 472.802V469.8H500.72C499.952 469.8 499.082 469.521 497.644 469.521V469.521ZM499.149 488.849C500.754 488.951 502.025 489.018 502.025 490.106C502.025 491.935 499.383 492.073 497.445 492.073C495.105 492.073 493.4 491.665 493.4 490.308C493.4 489.629 493.834 489.053 494.27 488.511L499.149 488.849V488.849ZM497.847 478.875C495.64 478.875 494.737 477.721 494.737 476.059C494.737 473.854 496.107 472.937 497.946 472.937C499.851 472.937 500.988 473.989 500.988 475.991C500.988 477.756 499.718 478.875 497.847 478.875ZM513.121 466.875C515.059 466.875 516.163 465.755 516.163 463.82C516.163 461.888 515.059 460.835 513.121 460.835C511.215 460.835 510.111 461.888 510.111 463.82C510.111 465.754 511.215 466.875 513.121 466.875ZM515.677 483.667V469.8H509.176L508.808 472.441L510.59 473.034C510.925 473.135 511.001 473.32 511.001 473.693V483.667C511.001 484.177 510.719 484.278 510.251 484.347L508.329 484.584V487.426H518.349V484.584L516.428 484.347C515.925 484.278 515.677 484.211 515.677 483.667ZM530.652 482.962C529.849 483.267 528.894 483.503 527.956 483.503C526.152 483.503 525.697 482.724 525.697 480.722V472.512H530.372V469.122H525.938C525.671 469.122 525.697 469.12 525.697 468.883V464.377H522.495C522.128 467.766 520.353 469.255 517.681 469.595V472.512H520.355C520.623 472.512 520.353 472.751 520.353 472.954V481.842C520.353 485.677 521.992 487.305 525.969 487.305C527.876 487.305 530.049 486.66 531.487 485.948L530.652 482.962V482.962ZM466.74 461.533C466.53 461.321 466.282 461.152 466.008 461.037C465.735 460.922 465.442 460.863 465.146 460.863C464.85 460.863 464.556 460.922 464.283 461.037C464.009 461.152 463.761 461.321 463.552 461.533L460.378 464.754L464.404 468.84C464.879 468.676 465.389 468.651 465.878 468.767C466.366 468.883 466.812 469.136 467.166 469.497C467.519 469.858 467.765 470.313 467.877 470.809C467.988 471.305 467.959 471.823 467.795 472.304L471.675 476.242C472.248 476.04 472.872 476.041 473.445 476.246C474.018 476.45 474.505 476.846 474.827 477.369C475.149 477.891 475.287 478.509 475.218 479.121C475.148 479.733 474.876 480.303 474.446 480.738C474.197 480.991 473.901 481.192 473.576 481.329C473.25 481.466 472.902 481.536 472.549 481.536C472.197 481.536 471.848 481.466 471.522 481.329C471.197 481.192 470.901 480.991 470.652 480.738C469.864 479.938 469.567 478.763 469.967 477.777L466.247 474.105V483.77C466.247 483.898 466.845 484.069 467.058 484.284C468.105 485.347 468.156 487.071 467.108 488.136C466.861 488.388 466.568 488.589 466.244 488.726C465.921 488.862 465.574 488.933 465.223 488.933C464.873 488.933 464.526 488.862 464.203 488.726C463.879 488.589 463.586 488.388 463.339 488.136C462.292 487.071 462.304 485.348 463.352 484.284C463.612 484.022 463.575 483.823 464.243 483.691V473.936C463.575 473.803 463.624 473.606 463.365 473.342C462.989 472.96 462.733 472.473 462.63 471.943C462.527 471.413 462.582 470.864 462.787 470.366L458.818 466.337L448.338 476.973C448.129 477.185 447.963 477.438 447.849 477.715C447.736 477.993 447.677 478.291 447.677 478.591C447.677 478.892 447.736 479.189 447.849 479.467C447.963 479.745 448.129 479.997 448.338 480.209L463.623 495.721C464.046 496.15 464.619 496.391 465.217 496.391C465.815 496.391 466.388 496.15 466.811 495.721L482.024 480.281C482.447 479.851 482.684 479.269 482.684 478.662C482.684 478.056 482.447 477.474 482.024 477.044L466.74 461.533V461.533Z" fill="#F34F29"/>
<path d="M262.082 514.617C269.427 514.617 275.352 508.692 275.352 501.348V488.078H262.082C254.738 488.078 248.812 494.003 248.812 501.348C248.812 508.692 254.738 514.617 262.082 514.617Z" fill="#0ACF83"/>
<path d="M248.812 474.809C248.812 467.464 254.738 461.539 262.082 461.539H275.352V488.078H262.082C254.738 488.078 248.812 482.153 248.812 474.809Z" fill="#A259FF"/>
<path d="M248.812 448.27C248.812 440.925 254.738 435 262.082 435H275.352V461.539H262.082C254.738 461.539 248.812 455.614 248.812 448.27Z" fill="#F24E1E"/>
<path d="M275.352 435H288.621C295.966 435 301.891 440.925 301.891 448.27C301.891 455.614 295.966 461.539 288.621 461.539H275.352V435Z" fill="#FF7262"/>
<path d="M301.891 474.809C301.891 482.153 295.966 488.078 288.621 488.078C281.277 488.078 275.352 482.153 275.352 474.809C275.352 467.464 281.277 461.539 288.621 461.539C295.966 461.539 301.891 467.464 301.891 474.809Z" fill="#1ABCFE"/>
<path d="M27.0731 487.982V469.624H28.055V472.512C28.171 472.384 28.2781 472.248 28.3757 472.105C28.7769 471.26 29.4072 470.548 30.1928 470.053C30.9784 469.559 31.8866 469.301 32.811 469.312C35.0487 469.244 36.8656 470.085 37.9344 472.105C38.6144 473.36 38.9887 474.762 39.0259 476.194C39.063 477.625 38.7621 479.045 38.1481 480.335C37.1529 482.599 34.6947 483.724 32.0629 483.311C31.2439 483.24 30.4554 482.962 29.7693 482.503C29.0833 482.043 28.5215 481.417 28.1352 480.681V487.982H27.0731ZM28.055 476.118C28.1419 477.013 28.1753 477.65 28.2755 478.274C28.6629 480.728 30.0924 482.186 32.3368 482.45C33.3906 482.626 34.4719 482.425 35.3964 481.883C36.3209 481.34 37.0313 480.489 37.4067 479.474C37.838 478.43 38.0456 477.305 38.0156 476.174C37.9857 475.042 37.7189 473.93 37.233 472.912C36.8324 472.002 36.151 471.25 35.2918 470.768C34.4326 470.286 33.4423 470.101 32.4704 470.241C31.5578 470.308 30.6886 470.662 29.9834 471.253C29.2783 471.845 28.7724 472.645 28.536 473.542C28.3268 474.391 28.1662 475.251 28.055 476.118V476.118ZM59.0558 478.613C58.907 479.905 58.3007 481.099 57.3497 481.972C56.3987 482.845 55.1677 483.338 53.8856 483.358C49.7709 483.569 47.8405 480.796 47.5332 477.596C47.3199 475.858 47.5979 474.095 48.3348 472.512C48.8479 471.426 49.6883 470.533 50.7342 469.964C51.7802 469.395 52.9775 469.178 54.1528 469.346C55.2702 469.442 56.3295 469.892 57.1807 470.633C58.0318 471.374 58.6317 472.368 58.8955 473.474C59.1045 474.482 59.2584 475.5 59.3564 476.525H48.5418C48.3415 479.426 49.8778 481.759 52.0554 482.321C54.7674 482.999 57.0853 481.806 57.9269 479.189C58.1139 478.518 58.4546 478.423 59.0558 478.613V478.613ZM48.5418 475.596H58.2074C58.1473 472.505 56.2503 470.268 53.6786 470.234C50.7662 470.186 48.6688 472.342 48.5418 475.596ZM61.0463 478.681H61.9949C62.0299 479.389 62.2567 480.074 62.6503 480.66C63.0439 481.246 63.5891 481.711 64.2259 482.003C65.0256 482.368 65.8962 482.545 66.7728 482.522C67.6494 482.498 68.5096 482.274 69.2892 481.867C69.714 481.673 70.0699 481.351 70.3088 480.945C70.5477 480.538 70.6581 480.068 70.6251 479.596C70.6495 479.141 70.5271 478.69 70.2764 478.312C70.0257 477.934 69.6603 477.649 69.2357 477.501C68.1937 477.108 67.0848 476.891 66.0228 476.545C64.9177 476.226 63.8371 475.825 62.7898 475.345C61.0797 474.498 60.9729 471.196 62.91 470.152C63.9019 469.584 65.0182 469.277 66.157 469.26C67.2958 469.242 68.4208 469.514 69.4294 470.051C70.0404 470.393 70.534 470.917 70.8443 471.552C71.1546 472.186 71.2669 472.902 71.1662 473.603H70.3512C70.3512 473.562 70.2778 473.529 70.2778 473.488C70.1776 470.851 68 470.037 65.6621 470.268C64.9641 470.355 64.2863 470.564 63.6581 470.885C63.2808 471.06 62.9663 471.349 62.7581 471.714C62.5499 472.078 62.4583 472.499 62.4959 472.918C62.497 473.338 62.626 473.747 62.8652 474.089C63.1044 474.431 63.442 474.69 63.8318 474.83C64.8605 475.21 65.9359 475.454 66.9913 475.752C67.8397 475.989 68.7214 476.145 69.543 476.43C70.1229 476.623 70.6314 476.99 71.0012 477.483C71.3709 477.975 71.5845 478.571 71.6137 479.189C71.7129 479.867 71.5991 480.559 71.2885 481.168C70.9779 481.776 70.4864 482.27 69.8837 482.579C67.6526 483.86 63.9788 483.521 62.3422 481.901C61.9275 481.478 61.5994 480.975 61.377 480.422C61.1546 479.87 61.0422 479.278 61.0463 478.681ZM83.6373 473.603H82.7489C82.7489 473.481 82.7021 473.373 82.6888 473.271C82.6743 472.595 82.4316 471.945 82.0011 471.429C81.5706 470.913 80.9786 470.563 80.3241 470.437C79.0892 470.078 77.7719 470.142 76.5768 470.62C76.1044 470.758 75.6885 471.047 75.3911 471.444C75.0937 471.841 74.9309 472.325 74.9269 472.823C74.9103 473.313 75.0607 473.794 75.3528 474.184C75.6448 474.574 76.0607 474.851 76.53 474.966C77.866 475.386 79.2353 475.644 80.5913 476.023C81.0307 476.13 81.4634 476.264 81.8872 476.423C82.5199 476.653 83.0697 477.071 83.4645 477.623C83.8594 478.175 84.0811 478.835 84.1006 479.516C84.12 480.198 83.9364 480.87 83.5737 481.444C83.211 482.018 82.6861 482.468 82.0675 482.735C81.1249 483.169 80.1032 483.399 79.068 483.409C78.0328 483.42 77.0068 483.211 76.0558 482.796C75.2737 482.453 74.6137 481.876 74.1647 481.142C73.7157 480.407 73.4991 479.551 73.5442 478.688H74.4125C74.5732 479.474 74.9203 480.209 75.4239 480.829C75.9275 481.449 76.5724 481.934 77.3027 482.244C78.0329 482.554 78.8266 482.678 79.615 482.607C80.4034 482.535 81.1626 482.27 81.8271 481.833C82.2318 481.62 82.5678 481.293 82.7951 480.892C83.0224 480.49 83.1316 480.031 83.1096 479.569C83.1297 479.114 83.003 478.664 82.7486 478.288C82.4943 477.913 82.1262 477.632 81.7001 477.488C80.6581 477.094 79.5493 476.884 78.4872 476.539C77.3758 476.224 76.2885 475.828 75.2341 475.352C73.5642 474.518 73.4306 471.244 75.3343 470.2C76.3385 469.608 77.4766 469.29 78.6378 469.277C79.799 469.264 80.9438 469.556 81.9607 470.125C82.5422 470.478 83.0103 470.994 83.308 471.611C83.6057 472.229 83.7201 472.921 83.6373 473.603V473.603ZM25.4499 483.026C25.1002 483.161 24.7141 483.16 24.3645 483.025C24.015 482.891 23.7262 482.63 23.5529 482.294C22.4641 480.64 21.2617 479.06 20.1061 477.447L19.6051 476.769C18.2291 478.64 16.8531 480.437 15.5973 482.301C15.4337 482.622 15.1605 482.872 14.8287 483.005C14.4969 483.137 14.1291 483.142 13.7938 483.019L18.9572 475.989L14.1545 469.637C14.5002 469.511 14.8784 469.509 15.2252 469.632C15.5721 469.756 15.8663 469.997 16.0582 470.315C17.1737 471.969 18.4095 473.549 19.6385 475.223C20.8743 473.562 22.0967 471.976 23.2389 470.336C23.4034 470.019 23.6767 469.776 24.0068 469.651C24.3369 469.526 24.7007 469.528 25.0291 469.658L23.1655 472.166C22.3305 473.284 21.5089 474.41 20.6405 475.501C20.5705 475.565 20.5146 475.643 20.4762 475.73C20.4379 475.817 20.4181 475.911 20.4181 476.006C20.4181 476.102 20.4379 476.196 20.4762 476.283C20.5146 476.37 20.5705 476.448 20.6405 476.511C22.237 478.66 23.8201 480.816 25.4499 483.026V483.026ZM47.3729 469.569V470.519C46.6973 470.474 46.0199 470.573 45.3845 470.81C44.749 471.047 44.1696 471.417 43.6837 471.895C43.1978 472.374 42.8161 472.95 42.5633 473.588C42.3105 474.225 42.1922 474.909 42.2161 475.596V483.053H41.2609V469.624H42.1961V472.376C43.3517 470.369 45.1352 469.624 47.3729 469.569V469.569ZM1.42285 475.901C1.56313 475.223 1.64996 474.484 1.84368 473.793C2.99927 469.624 7.7085 467.888 10.9482 470.471C12.8452 471.983 13.3195 474.125 13.226 476.539H2.53837C2.3647 480.85 5.4307 483.453 9.35172 482.125C9.98777 481.894 10.5571 481.506 11.0085 480.996C11.4598 480.485 11.7788 479.869 11.9368 479.203C12.1439 478.525 12.4778 478.41 13.1124 478.606C13.0079 479.431 12.7204 480.222 12.2715 480.918C11.8226 481.615 11.224 482.199 10.5207 482.626C9.35867 483.271 8.02549 483.527 6.71178 483.356C5.39806 483.186 4.1711 482.598 3.20635 481.677C2.25191 480.588 1.67482 479.212 1.56313 477.759C1.56313 477.528 1.47629 477.298 1.42953 477.081C1.42508 476.679 1.42285 476.285 1.42285 475.901V475.901ZM2.55173 475.61H12.2173C12.1572 472.485 10.2134 470.268 7.62166 470.247C4.73601 470.207 2.67197 472.376 2.54505 475.596L2.55173 475.61Z" fill="white"/>
<path d="M287.386 163.96H282.454L287.583 169.609V172.298H277.018V169.149H282.147L277.018 163.5V160.808H287.386V163.96ZM274.924 163.96H269.991L275.121 169.609V172.298H264.555V169.149H269.685L264.555 163.5V160.808H274.924V163.96ZM262.583 164.088H257.261V169.017H262.583V172.298H253.478V160.808H262.583V164.088Z" fill="white"/>
<path d="M246.225 239.107L240.816 177.543H300.244L294.831 239.097L270.494 245.945L246.225 239.107V239.107Z" fill="#1572B6"/>
<path d="M270.531 240.711L290.195 235.178L294.822 182.578H270.531V240.711Z" fill="#33A9DC"/>
<path d="M270.53 204.882H280.375L281.056 197.15H270.53V189.599H289.186L289.008 191.625L287.18 212.432H270.53V204.882Z" fill="white"/>
<path d="M270.575 224.491L270.542 224.501L262.257 222.229L261.726 216.208H254.259L255.302 228.063L270.541 232.356L270.576 232.346V224.491H270.575Z" fill="#EBEBEB"/>
<path d="M279.743 212.112L278.846 222.224L270.549 224.497V232.353L285.801 228.063L285.913 226.787L287.207 212.112H279.743Z" fill="white"/>
<path d="M270.556 189.599V197.149H252.586L252.436 195.452L252.098 191.625L251.919 189.599H270.556ZM270.53 204.882V212.433H262.35L262.201 210.736L261.861 206.908L261.683 204.882H270.53Z" fill="#EBEBEB"/>
<path d="M306.267 22.7104L306.467 22.5748C306.066 21.8291 305.465 21.1512 304.864 20.8122L272.601 1.966C272.066 1.62704 271.332 1.49146 270.53 1.49146C269.729 1.49146 268.994 1.69483 268.459 1.966L236.397 20.88C235.261 21.5579 234.459 23.2528 234.459 24.5408V62.3011C234.459 63.0468 234.593 63.8603 235.061 64.606L234.927 64.6738C235.261 65.2161 235.729 65.6907 236.196 65.9619L268.393 84.8759C268.927 85.2148 269.662 85.3504 270.463 85.3504C271.265 85.3504 272 85.147 272.534 84.8759L304.597 65.9619C305.732 65.2839 306.534 63.5891 306.534 62.3011V24.473C306.601 23.9307 306.534 23.3205 306.267 22.7104ZM282.554 44.7429V42.0312H285.894V38.6416H289.233V42.0312H292.573V44.7429H289.233V48.1325H285.894V44.7429H282.554ZM284.758 35.252C281.953 30.1676 276.609 26.7779 270.53 26.7779C261.512 26.7779 254.165 34.2351 254.165 43.387C254.165 52.539 261.512 59.9961 270.53 59.9961C276.609 59.9961 281.953 56.6065 284.758 51.5899L293.375 56.7421C288.833 64.7416 280.283 70.165 270.53 70.165C255.968 70.165 244.145 58.1657 244.145 43.387C244.145 28.6083 255.968 16.6091 270.53 16.6091C280.349 16.6091 288.899 22.1003 293.442 30.1676L284.758 35.252ZM304.597 44.7429H301.257V48.1325H298.585V44.7429H294.577V42.0312H298.585V38.6416H301.257V42.0312H304.597V44.7429Z" fill="#9C033A"/>
<path d="M78.4871 22.7104L78.6874 22.5748C78.2867 21.8291 77.6855 21.1512 77.0843 20.8122L44.8211 1.966C44.2867 1.62704 43.5519 1.49146 42.7504 1.49146C41.9488 1.49146 41.214 1.69483 40.6796 1.966L8.61682 20.88C7.48126 21.5579 6.67969 23.2528 6.67969 24.5408V62.3011C6.67969 63.0468 6.81328 63.8603 7.28087 64.606L7.14727 64.6738C7.48126 65.2161 7.94884 65.6907 8.41642 65.9619L40.6128 84.8759C41.1472 85.2148 41.882 85.3504 42.6836 85.3504C43.4851 85.3504 44.2199 85.147 44.7543 84.8759L76.8171 65.9619C77.9527 65.2839 78.7542 63.5891 78.7542 62.3011V24.473C78.821 23.9307 78.7542 23.3205 78.4871 22.7104ZM42.7504 59.9961C48.8289 59.9961 54.1727 56.6065 56.9782 51.5899L65.5951 56.7421C61.0529 64.7416 52.5028 70.165 42.7504 70.165C28.1885 70.165 16.3653 58.1657 16.3653 43.387C16.3653 28.6083 28.1885 16.6091 42.7504 16.6091C52.5696 16.6091 61.1197 22.1003 65.6619 30.1676L56.9782 35.252C54.1727 30.1676 48.8289 26.7779 42.7504 26.7779C33.7327 26.7779 26.385 34.2351 26.385 43.387C26.385 52.539 33.7327 59.9961 42.7504 59.9961Z" fill="#03599C"/>
<defs>
<linearGradient id="paint0_linear_737_173" x1="668.088" y1="469.345" x2="685.371" y2="478.58" gradientUnits="userSpaceOnUse">
<stop stop-color="#2298BD"/>
<stop offset="1" stop-color="#0ED7B5"/>
</linearGradient>
<linearGradient id="paint1_linear_737_173" x1="652.837" y1="10.298" x2="691.353" y2="42.6624" gradientUnits="userSpaceOnUse">
<stop stop-color="#5A9FD4"/>
<stop offset="1" stop-color="#306998"/>
</linearGradient>
<linearGradient id="paint2_linear_737_173" x1="705.194" y1="63.6924" x2="691.283" y2="44.4696" gradientUnits="userSpaceOnUse">
<stop stop-color="#FFD43B"/>
<stop offset="1" stop-color="#FFE873"/>
</linearGradient>
<radialGradient id="paint3_radial_737_173" cx="0" cy="0" r="1" gradientUnits="userSpaceOnUse" gradientTransform="translate(688.739 80.9529) rotate(-90) scale(4.35112 18.8462)">
<stop stop-color="#B8B8B8" stop-opacity="0.498"/>
<stop offset="1" stop-color="#7F7F7F" stop-opacity="0"/>
</radialGradient>
</defs>
</svg>
